<svg width="22" height="22" viewBox="0 0 22 22" fill="none" xmlns="http://www.w3.org/2000/svg">
<g clip-path="url(#clip0_29676_784)">
<path d="M11.8311 22H10.1689C9.93031 21.9648 9.69173 21.9267 9.45218 21.8944C4.97689 21.2852 1.24471 17.8347 0.2816 13.4063C0.168178 12.8852 0.0928889 12.3562 0 11.8311C0 11.2767 0 10.7233 0 10.1689C0.0293333 10.0437 0.0694222 9.92053 0.0860444 9.7944C0.631644 5.59484 2.87369 2.65173 6.69582 0.886844C7.82711 0.364711 9.04347 0.162311 10.2667 0C10.7878 0 11.31 0 11.8311 0C12.0697 0.0361778 12.3083 0.0655111 12.5459 0.108533C16.9165 0.887822 19.9027 3.34107 21.4065 7.52498C21.7096 8.3688 21.8074 9.28596 22 10.1699V11.8321C21.9716 11.9406 21.9296 12.0482 21.9179 12.1587C21.4661 16.5743 18.3842 20.2908 14.1064 21.5307C13.3652 21.7458 12.5908 21.8465 11.8311 22ZM11.6463 7.7352C10.0564 9.38764 8.55458 10.9472 7.05467 12.5077C6.99893 12.5654 6.93342 12.6309 6.91387 12.7043C6.61956 13.8092 6.33209 14.915 6.00649 16.1588C7.23458 15.754 8.31893 15.3961 9.40329 15.0353C9.44631 15.0206 9.48249 14.9796 9.51573 14.9444C11.0244 13.3701 12.5332 11.7959 13.9451 10.3214C13.1765 9.45609 12.4207 8.6064 11.6453 7.73422L11.6463 7.7352ZM14.8319 9.42578C15.1624 9.07378 15.4548 8.77164 15.7354 8.46071C15.9837 8.18498 15.97 7.89653 15.709 7.64231C15.1624 7.10942 14.606 6.58533 14.0507 6.06124C13.7955 5.82071 13.5334 5.8344 13.2675 6.05636C12.9438 6.3272 12.6143 6.59218 12.3972 6.77013C13.2753 7.72836 14.0399 8.5624 14.8319 9.42676V9.42578Z" fill="#0E0E0E"/>
<path d="M11.6463 7.73523C12.4217 8.60741 13.1775 9.4571 13.946 10.3224C12.5331 11.7969 11.0254 13.3711 9.51669 14.9454C9.48345 14.9806 9.44727 15.0216 9.40425 15.0363C8.31989 15.3971 7.23456 15.754 6.00745 16.1598C6.33305 14.916 6.62051 13.8102 6.91482 12.7053C6.93438 12.6319 6.99989 12.5664 7.05562 12.5087C8.55554 10.9472 10.0574 9.38767 11.6473 7.73621L11.6463 7.73523Z" fill="white"/>
<path d="M14.8319 9.42581C14.0399 8.56145 13.2753 7.72741 12.3972 6.76919C12.6143 6.59123 12.9438 6.32625 13.2674 6.05541C13.5324 5.83345 13.7945 5.81879 14.0506 6.0603C14.606 6.58439 15.1624 7.10847 15.709 7.64136C15.97 7.89656 15.9847 8.18403 15.7353 8.45976C15.4547 8.77167 15.1624 9.07283 14.8319 9.42483V9.42581Z" fill="white"/>
</g>
<defs>
<clipPath id="clip0_29676_784">
<rect width="22" height="22" fill="white"/>
</clipPath>
</defs>
</svg>
